<svg style="height: 512px; width: 512px;" xmlns="http://www.w3.org/2000/svg" viewBox="0 0 512 512"><defs><filter id="shadow-1" height="300%" width="300%" x="-100%" y="-100%"><feFlood flood-color="rgba(0, 0, 0, 1)" result="flood"></feFlood><feComposite in="flood" in2="SourceGraphic" operator="out" result="composite"></feComposite><feGaussianBlur in="composite" stdDeviation="7" result="blur"></feGaussianBlur><feOffset dx="0" dy="0" result="offset"></feOffset><feComposite in2="SourceGraphic" in="offset" operator="atop"></feComposite></filter><filter id="shadow-2" height="300%" width="300%" x="-100%" y="-100%"><feFlood flood-color="rgba(0, 0, 0, 1)" result="flood"></feFlood><feComposite in="flood" in2="SourceGraphic" operator="out" result="composite"></feComposite><feGaussianBlur in="composite" stdDeviation="12" result="blur"></feGaussianBlur><feOffset dx="0" dy="0" result="offset"></feOffset><feComposite in2="SourceGraphic" in="offset" operator="atop"></feComposite></filter><filter id="shadow-3" height="300%" width="300%" x="-100%" y="-100%"><feFlood flood-color="rgba(0, 0, 0, 1)" result="flood"></feFlood><feComposite in="flood" in2="SourceGraphic" operator="out" result="composite"></feComposite><feGaussianBlur in="composite" stdDeviation="7" result="blur"></feGaussianBlur><feOffset dx="0" dy="0" result="offset"></feOffset><feComposite in="offset" in2="SourceGraphic" operator="atop"></feComposite></filter><filter id="shadow-4" height="300%" width="300%" x="-100%" y="-100%"><feFlood flood-color="rgba(0, 0, 0, 1)" result="flood"></feFlood><feComposite in="flood" in2="SourceGraphic" operator="out" result="composite"></feComposite><feGaussianBlur in="composite" stdDeviation="15" result="blur"></feGaussianBlur><feOffset dx="0" dy="0" result="offset"></feOffset><feComposite in2="SourceGraphic" in="offset" operator="atop"></feComposite></filter><filter id="shadow-5" height="300%" width="300%" x="-100%" y="-100%"><feFlood flood-color="rgba(0, 0, 0, 1)" result="flood"></feFlood><feComposite in="flood" in2="SourceGraphic" operator="out" result="composite"></feComposite><feGaussianBlur in="composite" stdDeviation="7" result="blur"></feGaussianBlur><feOffset dx="0" dy="0" result="offset"></feOffset><feComposite in2="SourceGraphic" in="offset" operator="atop"></feComposite></filter><filter id="shadow-6" height="300%" width="300%" x="-100%" y="-100%"><feFlood flood-color="rgba(0, 0, 0, 1)" result="flood"></feFlood><feComposite in="flood" in2="SourceGraphic" operator="out" result="composite"></feComposite><feGaussianBlur in="composite" stdDeviation="7" result="blur"></feGaussianBlur><feOffset dx="0" dy="0" result="offset"></feOffset><feComposite in2="SourceGraphic" in="offset" operator="atop"></feComposite></filter><filter id="shadow-7" height="300%" width="300%" x="-100%" y="-100%"><feFlood flood-color="rgba(0, 0, 0, 1)" result="flood"></feFlood><feComposite in="flood" in2="SourceGraphic" operator="out" result="composite"></feComposite><feGaussianBlur in="composite" stdDeviation="12" result="blur"></feGaussianBlur><feOffset dx="0" dy="0" result="offset"></feOffset><feComposite in2="SourceGraphic" in="offset" operator="atop"></feComposite></filter><filter id="shadow-8" height="300%" width="300%" x="-100%" y="-100%"><feFlood flood-color="rgba(0, 0, 0, 1)" result="flood"></feFlood><feComposite in="flood" in2="SourceGraphic" operator="out" result="composite"></feComposite><feGaussianBlur in="composite" stdDeviation="20" result="blur"></feGaussianBlur><feOffset dx="0" dy="0" result="offset"></feOffset><feComposite in2="SourceGraphic" in="offset" operator="atop"></feComposite></filter><filter id="shadow-9" height="300%" width="300%" x="-100%" y="-100%"><feFlood flood-color="rgba(0, 0, 0, 1)" result="flood"></feFlood><feComposite in="flood" in2="SourceGraphic" operator="out" result="composite"></feComposite><feGaussianBlur in="composite" stdDeviation="15" result="blur"></feGaussianBlur><feOffset dx="0" dy="0" result="offset"></feOffset><feComposite in2="SourceGraphic" in="offset" operator="atop"></feComposite></filter><filter id="shadow-10" height="300%" width="300%" x="-100%" y="-100%"><feFlood flood-color="rgba(0, 0, 0, 1)" result="flood"></feFlood><feComposite in="flood" in2="SourceGraphic" operator="out" result="composite"></feComposite><feGaussianBlur in="composite" stdDeviation="7" result="blur"></feGaussianBlur><feOffset dx="0" dy="0" result="offset"></feOffset><feComposite in2="SourceGraphic" in="offset" operator="atop"></feComposite></filter><filter id="shadow-11" height="300%" width="300%" x="-100%" y="-100%"><feFlood flood-color="rgba(0, 0, 0, 1)" result="flood"></feFlood><feComposite in="flood" in2="SourceGraphic" operator="out" result="composite"></feComposite><feGaussianBlur in="composite" stdDeviation="12" result="blur"></feGaussianBlur><feOffset dx="0" dy="0" result="offset"></feOffset><feComposite in2="SourceGraphic" in="offset" operator="atop"></feComposite></filter><filter id="shadow-12" height="300%" width="300%" x="-100%" y="-100%"><feFlood flood-color="rgba(0, 0, 0, 1)" result="flood"></feFlood><feComposite in="flood" in2="SourceGraphic" operator="out" result="composite"></feComposite><feGaussianBlur in="composite" stdDeviation="20" result="blur"></feGaussianBlur><feOffset dx="0" dy="0" result="offset"></feOffset><feComposite in2="SourceGraphic" in="offset" operator="atop"></feComposite></filter><filter id="shadow-13" height="300%" width="300%" x="-100%" y="-100%"><feFlood flood-color="rgba(0, 0, 0, 1)" result="flood"></feFlood><feComposite in="flood" in2="SourceGraphic" operator="out" result="composite"></feComposite><feGaussianBlur in="composite" stdDeviation="15" result="blur"></feGaussianBlur><feOffset dx="0" dy="0" result="offset"></feOffset><feComposite in2="SourceGraphic" in="offset" operator="atop"></feComposite></filter><filter id="shadow-14" height="300%" width="300%" x="-100%" y="-100%"><feFlood flood-color="rgba(0, 0, 0, 1)" result="flood"></feFlood><feComposite in="flood" in2="SourceGraphic" operator="out" result="composite"></feComposite><feGaussianBlur in="composite" stdDeviation="20" result="blur"></feGaussianBlur><feOffset dx="0" dy="0" result="offset"></feOffset><feComposite in2="SourceGraphic" in="offset" operator="atop"></feComposite></filter><filter id="shadow-15" height="300%" width="300%" x="-100%" y="-100%"><feFlood flood-color="rgba(0, 0, 0, 1)" result="flood"></feFlood><feComposite in="flood" in2="SourceGraphic" operator="out" result="composite"></feComposite><feGaussianBlur in="composite" stdDeviation="7" result="blur"></feGaussianBlur><feOffset dx="0" dy="0" result="offset"></feOffset><feComposite in2="SourceGraphic" in="offset" operator="atop"></feComposite></filter><filter id="shadow-16" height="300%" width="300%" x="-100%" y="-100%"><feFlood flood-color="rgba(0, 0, 0, 1)" result="flood"></feFlood><feComposite in="flood" in2="SourceGraphic" operator="out" result="composite"></feComposite><feGaussianBlur in="composite" stdDeviation="7" result="blur"></feGaussianBlur><feOffset dx="0" dy="0" result="offset"></feOffset><feComposite in2="SourceGraphic" in="offset" operator="atop"></feComposite></filter><filter id="shadow-17" height="300%" width="300%" x="-100%" y="-100%"><feFlood flood-color="rgba(0, 0, 0, 1)" result="flood"></feFlood><feComposite in="flood" in2="SourceGraphic" operator="out" result="composite"></feComposite><feGaussianBlur in="composite" stdDeviation="7" result="blur"></feGaussianBlur><feOffset dx="0" dy="0" result="offset"></feOffset><feComposite in2="SourceGraphic" in="offset" operator="atop"></feComposite></filter><filter id="shadow-18" height="300%" width="300%" x="-100%" y="-100%"><feFlood flood-color="rgba(0, 0, 0, 1)" result="flood"></feFlood><feComposite in="flood" in2="SourceGraphic" operator="out" result="composite"></feComposite><feGaussianBlur in="composite" stdDeviation="7" result="blur"></feGaussianBlur><feOffset dx="0" dy="0" result="offset"></feOffset><feComposite in2="SourceGraphic" in="offset" operator="atop"></feComposite></filter></defs><rect fill="#000000" fill-opacity="1" height="512" width="512" rx="50" ry="50"></rect><g class="" style="" transform="translate(0,0)"><g transform="translate(512, 0) scale(-1, 1) rotate(0, 256, 256) skewX(0) skewY(0)"><path d="M235.344 31.188C199.424 31.731 164.872 37.816 132.374 49.188L138.094 66.656C168.704 55.813 201.279 50.003 235.281 49.5L235.345 31.187Z" class="selected" fill="#d0021b" fill-opacity="1" filter="url(#shadow-2)"></path><path d="M254.031 31.375L253.971 49.75C300.871 51.713 350.207 63.592 400.531 86.22L409.907 69.97C356.84 45.9 304.253 33.282 254.03 31.374Z" class="" fill="#d0021b" fill-opacity="1" filter="url(#shadow-3)"></path><path d="M114.938 55.875C94.805 64.295 75.562 74.828 57.376 87.375L66.189 103.905C83.396 91.788 101.599 81.621 120.657 73.469L114.937 55.874Z" class="" fill="#d0021b" fill-opacity="1" filter="url(#shadow-4)"></path><path d="M427.908 76.125L366.408 182.655L421.532 214.469L483.032 107.937L427.908 76.124Z" class="" fill="#ffffff" fill-opacity="1" filter="url(#shadow-5)"></path><path d="M253.845 82.438L253.815 100.844C293.551 102.134 334.175 112.144 374.157 131.906L383.532 115.686C340.686 94.356 296.824 83.674 253.846 82.436Z" class="" fill="#d0021b" fill-opacity="1" filter="url(#shadow-6)"></path><path d="M235.157 82.5C205.513 83.534 176.435 89.055 148.532 98.656L154.252 116.186C180.318 107.123 207.45 101.906 235.127 100.906L235.157 82.5Z" class="" fill="#d0021b" fill-opacity="1" filter="url(#shadow-7)"></path><path d="M42.126 98.53C33.921 104.926 25.949 111.77 18.25 119.03L28.22 135.375C35.596 128.239 43.233 121.533 51.094 115.25L42.156 98.53L42.126 98.53Z" class="" fill="#d0021b" fill-opacity="1" filter="url(#shadow-8)"></path><path d="M131.031 105.25C113.739 112.392 96.991 121.136 80.907 131.375L89.72 147.875C104.85 138.095 120.567 129.715 136.78 122.875L131.03 105.25Z" class="" fill="#d0021b" fill-opacity="1" filter="url(#shadow-9)"></path><path d="M253.657 140.53L253.595 158.97C283.765 160.15 315 166.785 346.751 179.375L356.189 163.031C321.489 148.985 287.039 141.678 253.657 140.531Z" class="" fill="#d0021b" fill-opacity="1" filter="url(#shadow-10)"></path><path d="M234.97 140.562C211.226 141.382 188.12 145.292 165.97 152.125L171.688 169.625C191.985 163.345 213.121 159.71 234.906 158.937L234.969 140.562Z" class="" fill="#d0021b" fill-opacity="1" filter="url(#shadow-11)"></path><path d="M65.344 141.937C57.697 147.427 50.214 153.257 42.938 159.437L52.812 175.594C59.772 169.574 66.919 163.874 74.219 158.531L65.343 141.938Z" class="" fill="#d0021b" fill-opacity="1" filter="url(#shadow-12)"></path><path d="M148.314 158.281C133.799 163.901 119.769 170.784 106.281 178.876L115.063 195.282C127.597 187.649 140.613 181.158 154.063 175.846L148.313 158.283Z" class="" fill="#d0021b" fill-opacity="1" filter="url(#shadow-13)"></path><path d="M90.53 189.03C83.634 193.812 76.923 198.917 70.375 204.344L80.219 220.469C86.449 215.197 92.829 210.232 99.374 205.593L90.53 189.03Z" class="" fill="#d0021b" fill-opacity="1" filter="url(#shadow-14)"></path><path d="M369.72 206.156L292.28 340.25C303.58 343.412 314.307 348.003 324.22 353.813L399.53 223.343L369.72 206.156Z" class="" fill="#ffffff" fill-opacity="1" filter="url(#shadow-15)"></path><path d="M255.687 353.936C195.08 353.938 145.481 399.752 139.281 458.688L221.407 458.688C219.201 454.018 217.97 448.818 217.97 443.344C217.97 423.472 234.285 407.188 254.156 407.188C274.028 407.188 290.344 423.472 290.344 443.344C290.344 448.819 289.114 454.018 286.906 458.688L372.094 458.688C365.894 399.752 316.294 353.938 255.688 353.938Z" class="" fill="#ffffff" fill-opacity="1" filter="url(#shadow-16)"></path><path d="M254.157 425.876C244.384 425.876 236.657 433.572 236.657 443.344C236.657 450.022 240.283 455.734 245.687 458.688L262.625 458.688C268.029 455.733 271.655 450.022 271.655 443.344C271.655 433.572 263.928 425.874 254.155 425.874Z" class="" fill="#d0021b" fill-opacity="1" filter="url(#shadow-17)"></path><path d="M100.687 477.376L100.687 493.063L404.031 493.063L404.031 477.375L100.69 477.375Z" class="" fill="#ffffff" fill-opacity="1" filter="url(#shadow-18)"></path></g></g></svg>