<svg style="height: 512px; width: 512px;" xmlns="http://www.w3.org/2000/svg" viewBox="0 0 512 512"><defs><filter id="shadow-1" height="300%" width="300%" x="-100%" y="-100%"><feFlood flood-color="rgba(0, 0, 0, 1)" result="flood"></feFlood><feComposite in="flood" in2="SourceGraphic" operator="out" result="composite"></feComposite><feGaussianBlur in="composite" stdDeviation="10" result="blur"></feGaussianBlur><feOffset dx="0" dy="0" result="offset"></feOffset><feComposite in2="SourceGraphic" in="offset" operator="atop"></feComposite></filter><filter id="shadow-2" height="300%" width="300%" x="-100%" y="-100%"><feFlood flood-color="rgba(0, 0, 0, 1)" result="flood"></feFlood><feComposite in="flood" in2="SourceGraphic" operator="out" result="composite"></feComposite><feGaussianBlur in="composite" stdDeviation="15" result="blur"></feGaussianBlur><feOffset dx="0" dy="0" result="offset"></feOffset><feComposite in2="SourceGraphic" in="offset" operator="atop"></feComposite></filter><filter id="shadow-3" height="300%" width="300%" x="-100%" y="-100%"><feFlood flood-color="rgba(0, 0, 0, 1)" result="flood"></feFlood><feComposite in="flood" in2="SourceGraphic" operator="out" result="composite"></feComposite><feGaussianBlur in="composite" stdDeviation="7" result="blur"></feGaussianBlur><feOffset dx="0" dy="0" result="offset"></feOffset><feComposite in2="SourceGraphic" in="offset" operator="atop"></feComposite></filter><filter id="shadow-4" height="300%" width="300%" x="-100%" y="-100%"><feFlood flood-color="rgba(0, 0, 0, 1)" result="flood"></feFlood><feComposite in="flood" in2="SourceGraphic" operator="out" result="composite"></feComposite><feGaussianBlur in="composite" stdDeviation="7" result="blur"></feGaussianBlur><feOffset dx="0" dy="0" result="offset"></feOffset><feComposite in2="SourceGraphic" in="offset" operator="atop"></feComposite></filter><filter id="shadow-5" height="300%" width="300%" x="-100%" y="-100%"><feFlood flood-color="rgba(0, 0, 0, 1)" result="flood"></feFlood><feComposite in="flood" in2="SourceGraphic" operator="out" result="composite"></feComposite><feGaussianBlur in="composite" stdDeviation="7" result="blur"></feGaussianBlur><feOffset dx="0" dy="0" result="offset"></feOffset><feComposite in2="SourceGraphic" in="offset" operator="atop"></feComposite></filter><filter id="shadow-6" height="300%" width="300%" x="-100%" y="-100%"><feFlood flood-color="rgba(0, 0, 0, 1)" result="flood"></feFlood><feComposite in="flood" in2="SourceGraphic" operator="out" result="composite"></feComposite><feGaussianBlur in="composite" stdDeviation="7" result="blur"></feGaussianBlur><feOffset dx="0" dy="0" result="offset"></feOffset><feComposite in2="SourceGraphic" in="offset" operator="atop"></feComposite></filter><filter id="shadow-7" height="300%" width="300%" x="-100%" y="-100%"><feFlood flood-color="rgba(0, 0, 0, 1)" result="flood"></feFlood><feComposite in="flood" in2="SourceGraphic" operator="out" result="composite"></feComposite><feGaussianBlur in="composite" stdDeviation="7" result="blur"></feGaussianBlur><feOffset dx="0" dy="0" result="offset"></feOffset><feComposite in2="SourceGraphic" in="offset" operator="atop"></feComposite></filter><filter id="shadow-8" height="300%" width="300%" x="-100%" y="-100%"><feFlood flood-color="rgba(0, 0, 0, 1)" result="flood"></feFlood><feComposite in="flood" in2="SourceGraphic" operator="out" result="composite"></feComposite><feGaussianBlur in="composite" stdDeviation="7" result="blur"></feGaussianBlur><feOffset dx="0" dy="0" result="offset"></feOffset><feComposite in2="SourceGraphic" in="offset" operator="atop"></feComposite></filter><filter id="shadow-9" height="300%" width="300%" x="-100%" y="-100%"><feFlood flood-color="rgba(0, 0, 0, 1)" result="flood"></feFlood><feComposite in="flood" in2="SourceGraphic" operator="out" result="composite"></feComposite><feGaussianBlur in="composite" stdDeviation="7" result="blur"></feGaussianBlur><feOffset dx="0" dy="0" result="offset"></feOffset><feComposite in2="SourceGraphic" in="offset" operator="atop"></feComposite></filter><filter id="shadow-10" height="300%" width="300%" x="-100%" y="-100%"><feFlood flood-color="rgba(0, 0, 0, 1)" result="flood"></feFlood><feComposite in="flood" in2="SourceGraphic" operator="out" result="composite"></feComposite><feGaussianBlur in="composite" stdDeviation="7" result="blur"></feGaussianBlur><feOffset dx="0" dy="0" result="offset"></feOffset><feComposite in2="SourceGraphic" in="offset" operator="atop"></feComposite></filter><filter id="shadow-11" height="300%" width="300%" x="-100%" y="-100%"><feFlood flood-color="rgba(0, 0, 0, 1)" result="flood"></feFlood><feComposite in="flood" in2="SourceGraphic" operator="out" result="composite"></feComposite><feGaussianBlur in="composite" stdDeviation="12" result="blur"></feGaussianBlur><feOffset dx="0" dy="0" result="offset"></feOffset><feComposite in2="SourceGraphic" in="offset" operator="atop"></feComposite></filter><filter id="shadow-12" height="300%" width="300%" x="-100%" y="-100%"><feFlood flood-color="rgba(0, 0, 0, 1)" result="flood"></feFlood><feComposite in="flood" in2="SourceGraphic" operator="out" result="composite"></feComposite><feGaussianBlur in="composite" stdDeviation="20" result="blur"></feGaussianBlur><feOffset dx="0" dy="0" result="offset"></feOffset><feComposite in2="SourceGraphic" in="offset" operator="atop"></feComposite></filter><filter id="shadow-13" height="300%" width="300%" x="-100%" y="-100%"><feFlood flood-color="rgba(0, 0, 0, 1)" result="flood"></feFlood><feComposite in="flood" in2="SourceGraphic" operator="out" result="composite"></feComposite><feGaussianBlur in="composite" stdDeviation="15" result="blur"></feGaussianBlur><feOffset dx="0" dy="0" result="offset"></feOffset><feComposite in2="SourceGraphic" in="offset" operator="atop"></feComposite></filter><filter id="shadow-14" height="300%" width="300%" x="-100%" y="-100%"><feFlood flood-color="rgba(0, 0, 0, 1)" result="flood"></feFlood><feComposite in="flood" in2="SourceGraphic" operator="out" result="composite"></feComposite><feGaussianBlur in="composite" stdDeviation="20" result="blur"></feGaussianBlur><feOffset dx="0" dy="0" result="offset"></feOffset><feComposite in2="SourceGraphic" in="offset" operator="atop"></feComposite></filter><filter id="shadow-15" height="300%" width="300%" x="-100%" y="-100%"><feFlood flood-color="rgba(0, 0, 0, 1)" result="flood"></feFlood><feComposite in="flood" in2="SourceGraphic" operator="out" result="composite"></feComposite><feGaussianBlur in="composite" stdDeviation="7" result="blur"></feGaussianBlur><feOffset dx="0" dy="0" result="offset"></feOffset><feComposite in2="SourceGraphic" in="offset" operator="atop"></feComposite></filter><filter id="shadow-16" height="300%" width="300%" x="-100%" y="-100%"><feFlood flood-color="rgba(0, 0, 0, 1)" result="flood"></feFlood><feComposite in="flood" in2="SourceGraphic" operator="out" result="composite"></feComposite><feGaussianBlur in="composite" stdDeviation="7" result="blur"></feGaussianBlur><feOffset dx="0" dy="0" result="offset"></feOffset><feComposite in2="SourceGraphic" in="offset" operator="atop"></feComposite></filter><filter id="shadow-17" height="300%" width="300%" x="-100%" y="-100%"><feFlood flood-color="rgba(0, 0, 0, 1)" result="flood"></feFlood><feComposite in="flood" in2="SourceGraphic" operator="out" result="composite"></feComposite><feGaussianBlur in="composite" stdDeviation="7" result="blur"></feGaussianBlur><feOffset dx="0" dy="0" result="offset"></feOffset><feComposite in2="SourceGraphic" in="offset" operator="atop"></feComposite></filter><filter id="shadow-18" height="300%" width="300%" x="-100%" y="-100%"><feFlood flood-color="rgba(0, 0, 0, 1)" result="flood"></feFlood><feComposite in="flood" in2="SourceGraphic" operator="out" result="composite"></feComposite><feGaussianBlur in="composite" stdDeviation="7" result="blur"></feGaussianBlur><feOffset dx="0" dy="0" result="offset"></feOffset><feComposite in2="SourceGraphic" in="offset" operator="atop"></feComposite></filter></defs><rect fill="#000000" fill-opacity="1" height="512" width="512" rx="50" ry="50"></rect><g class="" style="" transform="translate(0,0)"><g><path d="M36.98 18L386.986 418.08C397.902 428.916 432.464 400.98 422.501 389.559L96.311 18Z" class="selected" fill="#b57204" filter="url(#shadow-2)" fill-opacity="1"></path><path d="M274.851 93.049C271.323 93.031 267.771 93.489 264.164 94.342C259.641 95.433 257.77 97.754 257.091 102.334C253.895 124.164 250.638 145.938 247.343 167.729L276.816 201.572C278.335 191.336 279.856 181.098 281.336 170.967C284.766 148.005 288.177 125.02 291.669 102.1C292.152 98.903 291.865 97.01 288.414 95.646C283.884 93.881 279.387 93.072 274.851 93.049Z" class="" fill="#fdd390" fill-opacity="1" filter="url(#shadow-3)"></path><path d="M352.74 105.721C351.298 105.669 349.191 106.741 348.505 107.986C334.51 132.042 320.635 156.208 306.795 180.363C300.872 190.652 294.865 200.871 288.787 211.355L378.29 314.22C409.442 298.842 440.612 283.459 471.663 267.942C473.24 267.146 474.783 264.649 474.916 262.815C475.616 253.538 472.716 245.277 466.909 238.04C464.955 235.567 463.165 234.608 459.815 236.206C440.869 245.584 421.764 254.671 402.676 263.831C389.652 270.112 376.639 276.414 363.637 282.739C360.174 277.686 356.696 272.643 353.204 267.61C354.298 266.573 355.383 265.527 356.459 264.472C385.406 237.225 414.299 209.912 443.264 182.724C445.875 180.342 446.44 178.255 445.27 175.06C442.445 167.38 437.826 161.316 430.864 156.757C426.983 154.207 424.587 154.533 421.215 157.79C408.466 169.995 395.412 181.903 382.463 193.91C365.313 209.854 348.159 225.82 330.887 241.65C329.754 242.778 326.967 243.79 326.114 243.169C321.706 240.129 317.629 236.481 313.481 233.049C323.25 216.367 332.721 200.149 342.251 183.933C353.811 164.143 365.391 144.383 376.752 124.46C377.612 122.98 377.866 120.09 376.928 118.806C371.138 110.505 362.991 105.899 352.738 105.722Z" class="" fill="#fdd390" filter="url(#shadow-4)" fill-opacity="1"></path><path d="M141.81 200.215C135.76 200.221 129.922 202.865 124.144 208.197C125.239 209.581 126.408 210.949 127.5 212.352C140.284 228.682 153.268 244.902 165.841 261.449C180.848 281.277 194.902 301.919 210.593 321.215C221.666 334.763 234.396 347.353 254.689 345.033C255.781 351.028 256.852 357.027 257.904 363.029C233.601 366.457 216.604 354.237 200.56 338.391C199.543 341.061 198.96 342.911 198.14 344.703C190.421 361.683 183.326 378.97 174.826 395.521C165.957 412.779 127.16 464.255 103.291 494L280.411 494C281.253 481.327 282.165 467.655 283.419 457.16C286.598 429.887 291.197 402.886 302.625 377.607C305.898 370.317 310.205 363.885 315.56 358.449L220.17 248.801C220.108 249.307 220.07 249.794 220.03 250.279C219.956 251.139 218.96 252.427 218.218 252.602C212.86 253.576 207.263 255.486 202.197 254.65C199.237 254.161 197.128 249.014 194.65 245.936C193.5 244.53 192.47 243.071 191.34 241.666C181.24 229.056 171.826 215.798 158.42 206.324C152.651 202.259 147.148 200.21 141.81 200.214Z" class="" fill="#fdd390" fill-opacity="1" filter="url(#shadow-5)"></path></g></g><g class="" style="" transform="translate(-10,345)"><g transform="translate(16, 16) scale(0.5, 0.5) rotate(0, 128, 128)"><circle cx="128" cy="128" r="128" fill="#000000" fill-opacity="1"></circle><circle stroke="#ffffff" stroke-opacity="1" fill="#000000" fill-opacity="1" stroke-width="18" cx="128" cy="128" r="101"></circle><path fill="#ffffff" fill-opacity="1" d="M128.1 134.6q-9.1 0-14 5t-4.9 14.3q0 9.3 4.9 14.3 4.9 4.9 14 4.9t13.9-4.9q4.8-5 4.8-14.3 0-9.4-4.8-14.3-4.8-5-13.9-5zm-23.8-10.8q-11.47-3.5-17.31-10.6-5.84-7.2-5.84-17.99 0-16 11.94-24.38 11.91-8.38 35.01-8.38 23 0 34.9 8.38 11.9 8.3 11.9 24.38 0 10.79-5.9 17.99-5.8 7.1-17.3 10.6 12.8 3.6 19.3 11.6 6.6 8 6.6 20.2 0 18.7-12.5 28.4-12.4 9.6-37 9.6T90.89 184q-12.53-9.7-12.53-28.4 0-12.2 6.52-20.2 6.6-8 19.42-11.6zm7.7-25.29q0 7.49 4.1 11.59 4.2 4.1 12 4.1 7.6 0 11.8-4.1 4.1-4.1 4.1-11.59 0-7.53-4.1-11.51-4.2-4.06-11.8-4.06-7.8 0-12 4.06-4.1 4.06-4.1 11.51z"></path></g></g></svg>