<svg style="height: 512px; width: 512px;" xmlns="http://www.w3.org/2000/svg" viewBox="0 0 512 512"><defs><filter id="shadow-1" height="300%" width="300%" x="-100%" y="-100%"><feFlood flood-color="rgba(0, 0, 0, 1)" result="flood"></feFlood><feComposite in="flood" in2="SourceGraphic" operator="out" result="composite"></feComposite><feGaussianBlur in="composite" stdDeviation="7" result="blur"></feGaussianBlur><feOffset dx="0" dy="0" result="offset"></feOffset><feComposite in2="SourceGraphic" in="offset" operator="atop"></feComposite></filter><filter id="shadow-2" height="300%" width="300%" x="-100%" y="-100%"><feFlood flood-color="rgba(0, 0, 0, 1)" result="flood"></feFlood><feComposite in="flood" in2="SourceGraphic" operator="out" result="composite"></feComposite><feGaussianBlur in="composite" stdDeviation="7" result="blur"></feGaussianBlur><feOffset dx="0" dy="0" result="offset"></feOffset><feComposite in2="SourceGraphic" in="offset" operator="atop"></feComposite></filter><filter id="shadow-3" height="300%" width="300%" x="-100%" y="-100%"><feFlood flood-color="rgba(0, 0, 0, 1)" result="flood"></feFlood><feComposite in="flood" in2="SourceGraphic" operator="atop" result="composite"></feComposite><feGaussianBlur in="composite" stdDeviation="5" result="blur"></feGaussianBlur><feOffset dx="0" dy="0" result="offset"></feOffset><feComposite in="SourceGraphic" in2="offset" operator="over"></feComposite></filter><filter id="shadow-4" height="300%" width="300%" x="-100%" y="-100%"><feFlood flood-color="rgba(0, 0, 0, 1)" result="flood"></feFlood><feComposite in="flood" in2="SourceGraphic" operator="out" result="composite"></feComposite><feGaussianBlur in="composite" stdDeviation="7" result="blur"></feGaussianBlur><feOffset dx="0" dy="0" result="offset"></feOffset><feComposite in2="SourceGraphic" in="offset" operator="atop"></feComposite></filter><filter id="shadow-7" height="300%" width="300%" x="-100%" y="-100%"><feFlood flood-color="rgba(0, 0, 0, 1)" result="flood"></feFlood><feComposite in="flood" in2="SourceGraphic" operator="out" result="composite"></feComposite><feGaussianBlur in="composite" stdDeviation="7" result="blur"></feGaussianBlur><feOffset dx="0" dy="0" result="offset"></feOffset><feComposite in2="SourceGraphic" in="offset" operator="atop"></feComposite></filter><filter id="shadow-8" height="300%" width="300%" x="-100%" y="-100%"><feFlood flood-color="rgba(0, 0, 0, 1)" result="flood"></feFlood><feComposite in="flood" in2="SourceGraphic" operator="out" result="composite"></feComposite><feGaussianBlur in="composite" stdDeviation="7" result="blur"></feGaussianBlur><feOffset dx="0" dy="0" result="offset"></feOffset><feComposite in2="SourceGraphic" in="offset" operator="atop"></feComposite></filter></defs><rect fill="#000000" fill-opacity="1" height="512" width="512" rx="32" ry="32"></rect><g class="" style="" transform="translate(0,0)"><g transform="translate(25.6, 25.6) scale(0.9, 0.9) rotate(0, 256, 256) skewX(0) skewY(0)"><path d="M256 16C123.5 16 16 123.5 16 256C16 388.6000061035156 123.5 496 256 496C388.6000061035156 496 496 388.6000061035156 496 256C496 123.4000015258789 388.6000061035156 16 256 16Z" class="" fill="#ffffff" fill-opacity="1" filter="url(#shadow-2)"></path><path d="M256 76C355.3999938964844 76 436 156.60000610351562 436 256C436 355.3999938964844 355.3999938964844 436 256 436C156.60000610351562 436 76 355.3999938964844 76 256C76 156.60000610351562 156.60000610351562 76 256 76Z" class="" fill="#000000" fill-opacity="1" filter="url(#shadow-3)"></path><path d="M347.29998779296875 140.1999969482422C340.79998779296875 140.1999969482422 334.79998779296875 142.60000610351562 330.5 148.39999389648438C278.5 218.5 261.5 244.89999389648438 224.5 318.20001220703125C216.10000610351562 307.1000061035156 158.89999389648438 245.8000030517578 130.60000610351562 224.10000610351562C116.4000015258789 213.1999969482422 89.30000305175781 251.3000030517578 99 261.20001220703125C142.60000610351562 306.1000061035156 220.10000610351562 406 232.6999969482422 405C254.10000610351562 403.29998779296875 307.79998779296875 268.20001220703125 381.5 171.3000030517578C389.5 160.89999389648438 366.5 140 347.29998779296875 140.1999969482422Z" class="selected" fill="#8ce52c" fill-opacity="1" filter="url(#shadow-4)"></path></g></g></svg>